# xmcd CD database file
#
# Track frame offsets:
#	150
#	19593
#	36640
#	54645
#	78710
#	96274
#	109918
#	130470
#	143103
#	153423
#	164215
#	174175
#
# Disc length: 2551 seconds
#
# Revision: 2
# Processed by: cddbd v1.5.2PL0 Copyright (c) Steve Scherf et al.
# Submitted via: CDex 1.51
#
DISCID=aa09f50c
DTITLE=John Frusciante - The Will To Death
DYEAR=2004
DGENRE=Rock
TTITLE0=A Doubt
TTITLE1=An Exercise
TTITLE2=Time Runs Out
TTITLE3=Loss
TTITLE4=Unchanging
TTITLE5=The Mirror
TTITLE6=A Loop
TTITLE7=Wishing
TTITLE8=Far Away
TTITLE9=The Days Have Turned
TTITLE10=Helical
TTITLE11=The Will To Death
EXTD=YEAR: 2004
EXTT0=
EXTT1=
EXTT2=
EXTT3=
EXTT4=
EXTT5=
EXTT6=
EXTT7=
EXTT8=
EXTT9=
EXTT10=
EXTT11=
PLAYORDER=
